<svg width="294" height="1237" viewBox="0 0 294 1237" fill="none" xmlns="http://www.w3.org/2000/svg">
<path d="M33 48.5882L208 0.00012207L179.5 630L240.5 1236.79H33L58 630L33 48.5882Z" fill="#FF3055"/>
<path d="M74.17 319.74V314.63H46.66V297.48H41.27V314.63H13.9V319.74H38.82C32.66 331.85 21.95 343.75 11.24 349.56C12.43 350.61 14.18 352.57 15.16 353.9C25.03 347.95 34.62 337.17 41.27 325.27V361.39H46.66V325.2C53.45 336.82 63.11 347.74 72.63 353.76C73.54 352.29 75.36 350.33 76.62 349.28C66.12 343.47 55.2 331.57 48.9 319.74H74.17ZM65.14 408.67L58.49 406.85C56.46 416.93 51.77 428.41 45.26 436.53C38.89 444.44 29.23 451.44 18.8 455.08L23.7 460.19C33.71 456.06 43.72 448.29 50.09 440.24C55.97 432.68 60.17 422.39 62.9 414.76C63.46 413.01 64.3 410.49 65.14 408.67ZM29.51 517.62H34.62V512.3H53.17V517.9H58.35V512.3H75.01V508.17H58.35V503.48H53.17V508.17H34.62V503.48H29.51V508.17H13.13V512.3H29.51V517.62ZM58.77 525.81V530.92H44.21V525.81H58.77ZM75.29 551.92V547.72H46.38V542.61H72.84V538.41H27.69V525.81H39.31V534.35H63.81V525.81H74.94V521.68H63.81V516.5H58.77V521.68H44.21V515.94H39.31V521.68H27.69V516.57H22.51V521.68H13.13V525.81H22.51V542.61H41.34V547.72H12.92V551.92H36.72C30.21 556.47 20.2 560.32 11.45 562.21C12.57 563.19 13.97 565.08 14.74 566.34C23.77 563.96 34.48 559.2 41.34 553.53V567.32H46.38V553.18C53.03 559.34 63.53 564.24 73.19 566.55C73.96 565.22 75.43 563.12 76.55 562.14C67.38 560.39 57.51 556.68 51.21 551.92H75.29ZM72.56 640.5C72.56 626.29 62.13 614.74 45.75 614.74C28.67 614.74 15.16 628.04 15.16 643.23C15.16 654.78 21.39 661.92 27.62 661.92C34.13 661.92 39.66 654.57 43.93 640.15C45.89 633.64 47.22 626.5 48.13 619.99C60.03 620.97 66.82 629.72 66.82 640.29C66.82 652.4 58 659.05 49.04 661.08C47.43 661.43 45.26 661.78 43.02 661.99L46.31 667.17C62.9 665 72.56 655.2 72.56 640.5ZM20.62 642.74C20.62 633.22 28.88 621.74 42.32 620.06C41.55 626.5 40.15 633.15 38.4 638.96C34.83 650.79 31.12 655.48 27.83 655.48C24.68 655.48 20.62 651.56 20.62 642.74ZM29.4963 721.66C28.703 722.64 27.583 723.433 26.1363 724.04C24.7363 724.647 23.383 724.95 22.0763 724.95V715.36C24.1297 715.033 26.1597 714.217 28.1663 712.91C30.2197 711.603 31.6897 709.9 32.5763 707.8H42.2363V768H29.4963V721.66ZM46.5102 765.13C46.5102 762.377 46.9302 759.833 47.7702 757.5C48.6568 755.167 49.7302 753.067 50.9902 751.2C52.2502 749.333 53.9068 747.14 55.9602 744.62C58.0602 742.007 59.7168 739.79 60.9302 737.97C62.1902 736.15 63.2402 734.073 64.0802 731.74C64.9668 729.36 65.4102 726.793 65.4102 724.04C65.4102 722.407 65.1768 721.147 64.7102 720.26C64.2435 719.327 63.4035 718.86 62.1902 718.86C60.1835 718.86 59.1802 720.657 59.1802 724.25V731.6H46.5102L46.3702 727.89C46.3702 723.317 46.8368 719.56 47.7702 716.62C48.7035 713.68 50.3368 711.44 52.6702 709.9C55.0035 708.36 58.2235 707.59 62.3302 707.59C67.3702 707.59 71.2668 709.013 74.0202 711.86C76.7735 714.66 78.1502 718.65 78.1502 723.83C78.1502 727.143 77.6835 730.153 76.7502 732.86C75.8635 735.52 74.7435 737.853 73.3902 739.86C72.0835 741.867 70.3335 744.223 68.1402 746.93C66.5535 748.843 65.2235 750.547 64.1502 752.04C63.1235 753.533 62.1902 755.073 61.3502 756.66H77.7302V768H46.5102V765.13ZM40.43 814.58C39.94 823.82 39.94 857.21 11.59 871.7C13.2 872.75 14.88 874.43 15.79 875.69C33.5 866.1 40.71 849.23 43.79 835.23C47.15 849.23 54.85 867.15 72.91 875.69C73.68 874.29 75.29 872.54 76.76 871.42C50.44 859.38 46.66 827.04 46.03 817.8C46.1 816.61 46.1 815.49 46.17 814.58H40.43Z" fill="black"/>
<path d="M119 159.799L256.44 159.799V186.999L201.4 186.999L256.44 199.799V227.479L193.56 212.119L119 230.679V202.199L185.56 187.159L119 187.159V159.799ZM117.72 268.068C117.72 256.974 121.08 248.548 127.8 242.788C134.627 237.028 144.173 234.148 156.44 234.148L221.88 234.148C233.72 234.148 242.627 237.028 248.6 242.788C254.68 248.548 257.72 256.974 257.72 268.068C257.72 279.161 254.68 287.588 248.6 293.348C242.627 299.108 233.72 301.988 221.88 301.988L156.44 301.988C144.067 301.988 134.52 299.108 127.8 293.348C121.08 287.588 117.72 279.161 117.72 268.068ZM143 268.068C143 270.521 144.067 272.174 146.2 273.028C148.333 273.881 151.32 274.308 155.16 274.308L222.36 274.308C225.347 274.308 227.747 273.881 229.56 273.028C231.48 272.281 232.44 270.681 232.44 268.228C232.44 263.641 228.973 261.348 222.04 261.348L155 261.348C151.053 261.348 148.067 261.828 146.04 262.788C144.013 263.748 143 265.508 143 268.068ZM119 313.08L256.44 313.08V341.4L190.68 354.04H256.44V380.6L119 380.6L119 353.72L187.8 339.96L119 339.96V313.08ZM117.72 425.568C117.72 414.474 121.08 406.048 127.8 400.288C134.627 394.528 144.173 391.648 156.44 391.648L221.88 391.648C233.72 391.648 242.627 394.528 248.6 400.288C254.68 406.048 257.72 414.474 257.72 425.568C257.72 436.661 254.68 445.088 248.6 450.848C242.627 456.608 233.72 459.488 221.88 459.488L156.44 459.488C144.067 459.488 134.52 456.608 127.8 450.848C121.08 445.088 117.72 436.661 117.72 425.568ZM143 425.568C143 428.021 144.067 429.674 146.2 430.528C148.333 431.381 151.32 431.808 155.16 431.808L222.36 431.808C225.347 431.808 227.747 431.381 229.56 430.528C231.48 429.781 232.44 428.181 232.44 425.728C232.44 421.141 228.973 418.848 222.04 418.848L155 418.848C151.053 418.848 148.067 419.328 146.04 420.288C144.013 421.248 143 423.008 143 425.568ZM119 470.58L256.44 470.58V497.94L207.32 497.94L207.32 510.9L256.44 510.9V538.26H119V510.9H181.4L181.4 497.94H119V470.58ZM119 546.744L256.44 560.024V606.584L119 619.704V593.624L141.24 591.704V575.064L119 573.464V546.744ZM163.16 577.144V589.624L233.08 583.544V582.264L163.16 577.144Z" fill="black"/>
<path d="M121 652.108H232.04V635.788H258.44V695.948H232.04V679.628H121V652.108ZM121 714.425L258.44 699.705V726.585L171.72 734.265L258.44 741.945V767.545L171.72 774.905L258.44 782.265V809.465L121 794.425V761.465L187.24 754.585L121 748.025L121 714.425ZM121 817.611H258.44L258.44 872.651H231.88V845.611H205.16V871.531H179.24V845.611H147.72V874.411H121V817.611ZM121 883.549H258.44V911.069H144.36V939.389H121V883.549ZM121 959.783L258.6 942.823V969.063L165 979.143L258.6 988.103V1014.34L121 997.383V959.783ZM121 1022.14H258.44V1077.18H231.88V1050.14H205.16V1076.06H179.24V1050.14H147.72V1078.94H121V1022.14Z" fill="black"/>
</svg>
